# xmcd
#
# Track frame offsets:
#	150
#	12755
#	27604
#	36988
#	50338
#	65338
#	75970
#	94037
#	113736
#	128981
#	139739
#	152613
#	171118
#	180938
#	195496
#	208673
#	226250
#	240670
#	266603
#	277860
#
# Disc length: 3849 seconds
#
# Revision: 1264521533
# Processed by: cddbd v1.5.2PL0 Copyright (c) Steve Scherf et al.
# Submitted via: audiograbber 1.83.01
#
DISCID=000f0714
DTITLE=Sammy Davis Jr. - The Definitive Collection [remastered]
DYEAR=2006
DGENRE=Swing/Jazz
TTITLE0=Hey There [mono]
TTITLE1=The Birth Of The Blues [mono]
TTITLE2=Something's Gotta Give [mono]
TTITLE3=Love Me Or Leave Me [mono]
TTITLE4=That Old Black Magic [mono]
TTITLE5=Too Close For Comfort [mono]
TTITLE6=There's A Boat Dat's Leavin' Soon For New York
TTITLE7=The Lady Is A Tramp
TTITLE8=What Kind Of Fool Am I?
TTITLE9=Gonna Build A Mountain
TTITLE10=The Shelter Of Your Arms
TTITLE11=Night Song
TTITLE12=My Shining Hour
TTITLE13=Lonely Is The Name
TTITLE14=I've Gotta Be Me
TTITLE15=The Rhythm Of Life
TTITLE16=The Candy Man
TTITLE17=Mr. Bojangles
TTITLE18=The People Tree
TTITLE19=Keep Your Eye On The Sparrow (Baretta's Theme)
EXTD=
EXTT0=
EXTT1=
EXTT2=
EXTT3=
EXTT4=
EXTT5=
EXTT6=
EXTT7=
EXTT8=
EXTT9=
EXTT10=
EXTT11=
EXTT12=
EXTT13=
EXTT14=
EXTT15=
EXTT16=
EXTT17=
EXTT18=
EXTT19=
PLAYORDER=
